<?xml version="1.0" encoding="UTF-8"?>
<svg id="Layer_1" data-name="Layer 1" xmlns="http://www.w3.org/2000/svg" viewBox="0 0 17.91 18.13">
  <path fill="currentColor" d="M12.91,2.78C9.51.5,4.9,1.43,2.63,4.85c-1.14,1.71-.67,4.03,1.03,5.17,1.7,1.14,4.01.68,5.14-1.03,1.14-1.71,3.44-2.18,5.14-1.03,1.7,1.14,2.16,3.46,1.03,5.17,2.27-3.43,1.35-8.06-2.06-10.35"/>
  <path fill="currentColor" d="M12.91,2.78C9.51.5,4.9,1.43,2.63,4.85c-1.14,1.71-.67,4.03,1.03,5.17,1.7,1.14,4.01.68,5.14-1.03,1.14-1.71,3.44-2.18,5.14-1.03,1.7,1.14,2.16,3.46,1.03,5.17,2.27-3.43,1.35-8.06-2.06-10.35Z"/>
  <g>
    <path fill="currentColor" d="M8.79,16.33c-1.44,0-2.84-.43-4.04-1.23C1.97,13.22.87,9.71,1.89,6.65c-.09,1.34.51,2.69,1.7,3.48.63.42,1.37.65,2.12.65,1.29,0,2.48-.64,3.19-1.72.67-1,1.78-1.61,2.98-1.61.71,0,1.39.21,1.98.61,1.64,1.1,2.09,3.35.99,5-1.36,2.05-3.62,3.27-6.07,3.27h0Z"/>
    <path fill="currentColor" d="M1.8,7.47c.15,1.09.75,2.11,1.72,2.76.65.44,1.41.67,2.19.67,1.33,0,2.56-.66,3.3-1.77.64-.97,1.72-1.55,2.88-1.55.68,0,1.34.2,1.91.58,1.59,1.06,2.02,3.23.96,4.83-1.33,2.01-3.56,3.21-5.97,3.21-1.41,0-2.79-.42-3.97-1.21-2.51-1.68-3.62-4.71-3.03-7.52M2.63,4.85s-.03.04-.04.06c-2.22,3.42-1.29,8.01,2.1,10.28,1.26.85,2.69,1.25,4.11,1.25,2.4,0,4.75-1.17,6.18-3.32,1.14-1.71.68-4.03-1.03-5.17-.63-.42-1.35-.63-2.05-.63-1.2,0-2.37.58-3.09,1.66-.71,1.08-1.89,1.66-3.09,1.66-.71,0-1.42-.2-2.05-.63-1.7-1.14-2.16-3.46-1.03-5.17h0Z"/>
  </g>
</svg>
