<?xml version="1.0" encoding="UTF-8"?>
<svg id="Layer_1" data-name="Layer 1" xmlns="http://www.w3.org/2000/svg" xmlns:xlink="http://www.w3.org/1999/xlink" viewBox="0 0 16 16">
  <defs>
    <style>
      .cls-1, .cls-2 {
        fill: none;
      }

      .cls-3 {
        fill: #1f1a17;
      }

      .cls-2 {
        stroke: #1f1a17;
        stroke-miterlimit: 10;
      }

      .cls-4 {
        clip-path: url(#clippath);
      }
    </style>
    <clipPath id="clippath">
      <rect class="cls-1" width="16" height="16"/>
    </clipPath>
  </defs>
  <g class="cls-4">
    <path class="cls-3" d="M12.1,1.8C8.7-.48,4.09.44,1.82,3.87c-1.14,1.71-.67,4.03,1.03,5.17,1.7,1.14,4.01.68,5.14-1.03,1.14-1.71,3.44-2.18,5.14-1.03,1.7,1.14,2.16,3.46,1.03,5.17,2.27-3.43,1.35-8.06-2.06-10.35"/>
    <path class="cls-2" d="M12.1,1.8C8.7-.48,4.09.44,1.82,3.87c-1.14,1.71-.67,4.03,1.03,5.17,1.7,1.14,4.01.68,5.14-1.03,1.14-1.71,3.44-2.18,5.14-1.03,1.7,1.14,2.16,3.46,1.03,5.17,2.27-3.43,1.35-8.06-2.06-10.35Z"/>
    <path class="cls-2" d="M13.13,6.98c-1.7-1.14-4.01-.68-5.14,1.03s-3.44,2.18-5.14,1.04c-1.7-1.14-2.16-3.46-1.03-5.17-.01.02-.03.04-.04.06C-.44,7.36.49,11.95,3.88,14.22c3.41,2.29,8.01,1.36,10.28-2.07,1.14-1.71.68-4.03-1.03-5.17Z"/>
  </g>
</svg>