<?xml version="1.0" encoding="UTF-8"?>
<svg id="Layer_2" data-name="Layer 2" xmlns="http://www.w3.org/2000/svg" viewBox="0 0 17.91 18.13">
  <path d="M15.62,0H2.29C1.03,0,0,1.03,0,2.29v13.54c0,1.27,1.03,2.29,2.29,2.29h13.32c1.27,0,2.29-1.03,2.29-2.29V2.29c0-1.27-1.03-2.29-2.29-2.29ZM14.99,16.56h-1.9c-.27,0-.44-.06-.56-.17-.12-.12-.21-.29-.27-.5l-.91-2.96h-4.8l-.91,2.96c-.08.21-.15.39-.27.5-.12.12-.31.17-.56.17h-1.9c-.54,0-.72-.23-.56-.68L6.83,2.15c.08-.23.17-.39.29-.5.1-.1.27-.15.54-.15h2.59c.25,0,.45.06.56.15.1.12.19.27.27.5l4.47,13.74c.16.45-.04.68-.56.68Z" style="fill: #fff;"/>
  <polygon points="7.35 10.29 10.54 10.29 8.96 5.11 7.35 10.29" style="fill: #fff;"/>
</svg>