<?xml version="1.0" encoding="UTF-8"?>
<svg id="Layer_2" data-name="Layer 2" xmlns="http://www.w3.org/2000/svg" viewBox="0 0 15.63 14.99">
  <path d="M10.81,1.7C7.62-.43,3.29.44,1.17,3.63h0s-.04.06-.05.09c-.01.02-.03.04-.04.06-.02.03-.04.06-.05.09-.01.02-.03.04-.04.06-.02.03-.03.06-.05.09-.01.02-.03.04-.04.06-.02.03-.03.06-.05.09-.01.02-.02.04-.04.07-.02.03-.03.06-.05.09-.01.02-.02.05-.03.07-.01.03-.03.06-.04.09-.01.02-.02.05-.03.07-.01.03-.03.06-.04.09-.01.02-.02.05-.03.07-.01.03-.02.06-.04.09,0,.02-.02.05-.03.07-.01.03-.02.06-.03.09,0,.02-.02.05-.03.07-.01.03-.02.06-.03.09,0,.02-.02.05-.03.07-.01.03-.02.06-.03.09,0,.02-.02.05-.02.07,0,.03-.02.06-.03.09,0,.02-.02.05-.02.07,0,.03-.02.06-.02.09,0,.03-.01.05-.02.08,0,.03-.01.06-.02.09,0,.03-.01.05-.02.08,0,.03-.01.06-.02.09,0,.03-.01.05-.02.08,0,.03-.01.06-.02.09,0,.03-.01.05-.02.08,0,.03-.01.06-.02.09,0,.03,0,.05-.01.08,0,.03,0,.06-.01.09,0,.03,0,.05-.01.08,0,.03,0,.06-.01.08,0,.03,0,.06-.01.08,0,.03,0,.06,0,.08,0,.03,0,.06,0,.08,0,.03,0,.06,0,.08,0,.03,0,.06,0,.08,0,.03,0,.06,0,.08,0,.03,0,.06,0,.08,0,.03,0,.06,0,.08,0,.03,0,.06,0,.08,0,.03,0,.06,0,.08,0,.03,0,.06,0,.08,0,.03,0,.06,0,.08,0,.03,0,.06,0,.08,0,.03,0,.06,0,.08,0,.03,0,.06,0,.08,0,.03,0,.05,0,.08,0,.03,0,.06,0,.09,0,.03,0,.05,0,.08,0,.03,0,.06,0,.09,0,.03,0,.05,0,.08,0,.03,0,.06.01.09,0,.03,0,.05.01.08,0,.03,0,.06.01.09,0,.03,0,.05.01.08,0,.03,0,.06.01.09,0,.03,0,.05.01.08,0,.03.01.06.02.09,0,.02.01.05.02.07,0,.03.01.06.02.09,0,.02.01.05.02.07,0,.03.01.06.02.09,0,.02.01.05.02.07,0,.03.02.06.02.09,0,.02.01.05.02.07,0,.03.02.06.03.09,0,.02.01.05.02.07,0,.03.02.06.03.09,0,.02.02.05.02.07.01.03.02.06.03.09,0,.02.02.04.02.07.01.03.02.06.03.09,0,.02.02.04.02.06.01.03.02.06.04.09,0,.02.02.04.03.06.01.03.03.06.04.09,0,.02.02.04.03.06.01.03.03.06.04.09,0,.02.02.04.03.06.01.03.03.06.04.09,0,.02.02.04.03.06.02.03.03.06.05.09.01.02.02.04.03.06.02.03.03.06.05.09.01.02.02.04.03.05.02.03.03.06.05.09,0,.02.02.03.03.05.02.03.04.06.06.09.01.02.02.03.03.05.02.03.04.06.06.09.01.02.02.03.03.05.02.03.04.06.06.09.01.01.02.03.03.04.02.03.04.06.07.09.01.01.02.03.03.04.02.03.05.06.07.09.01.01.02.03.03.04.02.03.05.06.07.09.01.01.02.03.03.04.03.03.05.06.08.09,0,.01.02.02.03.03.03.03.05.06.08.09,0,.01.02.02.03.03.03.03.06.06.09.09.01.01.02.02.04.04.03.03.06.06.08.09.01.01.02.02.03.03.03.03.06.06.09.09.01.01.03.03.04.04.03.03.06.05.08.08.01.01.03.03.04.04.03.03.06.05.09.08,0,0,.02.01.03.02.04.03.07.06.11.09.01.01.03.02.04.03.03.03.06.05.1.08.01.01.03.02.04.03.08.06.16.12.24.18.05.03.1.07.15.1.07.05.15.1.22.14,1.12.69,2.38,1.02,3.62,1.02,0,0,0,0,0,0h0s0,0,0,0c2.18,0,4.32-1.02,5.67-2.91.04-.06.09-.12.13-.19,2.13-3.19,1.26-7.52-1.93-9.65ZM12.02,10.86c-.15.22-.3.42-.47.62-1.17,1.35-2.85,2.08-4.56,2.09-1.12,0-2.26-.3-3.28-.93-.04-.03-.09-.06-.13-.09-.05-.03-.1-.07-.15-.11-.02-.01-.03-.02-.05-.03-.04-.03-.07-.05-.11-.08-.02-.01-.03-.02-.05-.03-.04-.03-.09-.07-.13-.1,0,0-.01,0-.02-.01-.05-.04-.09-.08-.14-.12-.01-.01-.03-.02-.04-.03-.03-.03-.07-.06-.1-.09-.01-.01-.03-.03-.04-.04-.04-.03-.07-.07-.11-.1,0,0-.02-.01-.02-.02-.04-.04-.08-.09-.12-.13-.01-.01-.02-.02-.03-.03-.03-.03-.06-.07-.09-.1-.01-.01-.02-.03-.04-.04-.03-.04-.06-.07-.09-.11,0,0-.02-.02-.02-.03-.04-.05-.07-.09-.11-.14,0-.01-.02-.02-.02-.03-.03-.04-.06-.07-.08-.11-.01-.01-.02-.03-.03-.04-.03-.04-.05-.08-.08-.11,0-.01-.02-.02-.02-.03-.03-.05-.06-.1-.1-.15,0,0-.01-.02-.02-.03-.03-.04-.05-.08-.08-.13,0-.01-.02-.03-.03-.04-.02-.04-.04-.08-.07-.12,0-.01-.01-.03-.02-.04-.03-.05-.05-.1-.08-.16,0,0,0-.01,0-.02-.02-.05-.05-.09-.07-.14,0-.02-.01-.03-.02-.05-.02-.04-.04-.08-.05-.12,0-.01-.01-.03-.02-.04-.02-.05-.04-.11-.07-.16,0,0,0,0,0,0-.02-.05-.04-.11-.06-.16,0-.01-.01-.03-.02-.04-.01-.04-.03-.08-.04-.13,0-.02,0-.03-.01-.05-.03-.11-.07-.22-.09-.34,0-.01,0-.03-.01-.04-.01-.04-.02-.09-.03-.13,0-.02,0-.03-.01-.05-.01-.05-.02-.1-.03-.15,0,0,0-.01,0-.02-.01-.06-.02-.12-.03-.17,0-.01,0-.03,0-.04,0-.04-.01-.09-.02-.13,0-.02,0-.03,0-.05,0-.05,0-.1-.01-.14,0-.01,0-.02,0-.03,0-.06,0-.12-.01-.17,0-.01,0-.03,0-.04,0-.04,0-.09,0-.13,0-.02,0-.04,0-.05,0-.05,0-.09,0-.14,0-.01,0-.03,0-.04,0-.06,0-.12,0-.17,0,0,0,0,0,0,.28.61.72,1.15,1.32,1.55.63.42,1.34.62,2.04.62,1.2,0,2.37-.58,3.08-1.64.42-.63,1.06-1.06,1.8-1.2.74-.15,1.49,0,2.12.42.63.42,1.06,1.06,1.2,1.8.15.74,0,1.49-.42,2.12Z" style="fill: #fff;"/>
</svg>